<?xml version="1.0" standalone="no"?>
<!DOCTYPE svg PUBLIC "-//W3C//DTD SVG 20010904//EN"
 "http://www.w3.org/TR/2001/REC-SVG-20010904/DTD/svg10.dtd">
<svg version="1.0" xmlns="http://www.w3.org/2000/svg"
 width="280.000000pt" height="280.000000pt" viewBox="0 0 280.000000 280.000000"
 preserveAspectRatio="xMidYMid meet">
<metadata>
Created by potrace 1.14, written by Peter Selinger 2001-2017
</metadata>
<g transform="translate(0.000000,280.000000) scale(0.100000,-0.100000)"
fill="#000000" stroke="none">
<path d="M0 1555 c0 -1100 2 -1245 15 -1245 8 0 15 4 15 9 0 4 11 6 25 3 27
-5 32 7 13 26 -14 14 -3 28 26 34 10 1 28 21 39 42 12 22 23 34 25 28 6 -18
27 -14 46 7 13 15 14 20 4 24 -9 4 -7 6 4 6 9 1 21 8 26 17 11 20 52 10 52
-12 0 -8 7 -14 16 -14 12 0 15 9 13 37 -5 84 1 123 17 123 8 0 12 5 9 10 -3 6
-18 10 -33 10 -19 0 -32 8 -44 30 -17 30 -17 30 7 30 14 0 25 5 25 10 0 6 -7
10 -15 10 -19 0 -19 14 0 30 8 7 15 17 15 23 0 5 11 24 24 41 13 17 26 41 30
52 3 12 15 29 26 39 11 10 20 23 20 30 0 14 75 85 90 85 5 0 10 4 10 8 0 5 18
15 39 22 22 7 59 31 84 54 l44 41 -3 360 c-4 443 -9 613 -18 643 -5 15 -1 31
12 50 13 19 18 38 15 64 -4 27 6 63 37 140 23 57 50 114 61 126 10 13 47 38
83 56 36 18 64 35 61 37 -2 2 18 5 43 6 66 3 162 24 162 35 0 6 25 7 63 4 34
-4 80 -7 102 -7 191 -3 426 -19 446 -29 26 -14 39 -29 39 -45 0 -5 -4 -4 -9 4
-5 8 -11 9 -15 3 -7 -11 10 -27 39 -36 11 -4 31 -22 45 -41 14 -19 35 -38 47
-41 26 -7 105 -97 102 -116 -2 -14 23 -79 46 -118 39 -66 58 -119 59 -162 1
-27 4 -48 9 -48 4 0 7 -18 7 -40 0 -28 4 -40 14 -40 30 0 56 -56 62 -133 6
-60 3 -86 -14 -139 -20 -60 -21 -88 -21 -334 l0 -268 45 -63 c27 -37 60 -103
81 -161 19 -53 43 -115 53 -137 21 -47 43 -275 33 -353 -5 -43 -1 -60 21 -105
14 -30 26 -59 26 -65 0 -6 6 -13 13 -16 10 -5 10 -7 -1 -12 -6 -3 -12 -10 -12
-16 0 -7 26 -9 81 -4 l81 7 -4 -26 c-5 -24 -3 -25 38 -25 24 0 44 5 44 10 0 6
28 10 64 10 36 0 68 -4 71 -10 3 -5 1 -10 -6 -10 -8 0 -8 -4 1 -15 7 -8 16
-15 21 -15 5 0 9 584 9 1355 l0 1355 -1400 0 -1400 0 0 -1245z m237 -1017 c-3
-8 -6 -5 -6 6 -1 11 2 17 5 13 3 -3 4 -12 1 -19z m2485 -328 c-4 -26 -9 -30
-34 -30 -17 0 -27 -4 -23 -10 3 -5 -1 -10 -9 -10 -23 0 -19 27 5 33 11 3 23
15 26 26 3 12 13 21 22 21 14 0 17 -7 13 -30z"/>
<path d="M1018 2633 c7 -3 16 -2 19 1 4 3 -2 6 -13 5 -11 0 -14 -3 -6 -6z"/>
<path d="M320 730 c0 -5 5 -10 10 -10 6 0 10 5 10 10 0 6 -4 10 -10 10 -5 0
-10 -4 -10 -10z"/>
<path d="M400 520 c0 -22 5 -40 10 -40 6 0 10 18 10 40 0 22 -4 40 -10 40 -5
0 -10 -18 -10 -40z"/>
<path d="M641 494 c0 -11 3 -14 6 -6 3 7 2 16 -1 19 -3 4 -6 -2 -5 -13z"/>
<path d="M480 490 c0 -5 18 -10 40 -10 l40 0 0 -40 c0 -22 5 -40 10 -40 15 0
12 70 -4 86 -16 16 -86 19 -86 4z"/>
<path d="M175 410 c-19 -8 -19 -9 3 -9 12 -1 22 4 22 9 0 6 -1 10 -2 9 -2 0
-12 -4 -23 -9z"/>
<path d="M300 360 c0 -22 -4 -40 -10 -40 -5 0 -10 -18 -10 -40 0 -29 4 -40 15
-40 8 0 15 8 15 19 0 10 3 46 6 80 5 43 3 61 -5 61 -6 0 -11 -17 -11 -40z"/>
<path d="M590 350 c0 -27 5 -50 10 -50 6 0 10 23 10 50 0 28 -4 50 -10 50 -5
0 -10 -22 -10 -50z"/>
<path d="M138 323 c7 -3 16 -2 19 1 4 3 -2 6 -13 5 -11 0 -14 -3 -6 -6z"/>
<path d="M320 241 l0 -80 -37 -4 c-35 -4 -35 -4 5 -3 41 1 42 1 43 -34 0 -19
0 -54 -1 -77 -1 -33 2 -43 14 -43 13 0 16 14 16 80 0 47 -4 80 -10 80 -6 0
-10 33 -10 80 0 47 -4 80 -10 80 -6 0 -10 -33 -10 -79z"/>
<path d="M8 243 c7 -3 16 -2 19 1 4 3 -2 6 -13 5 -11 0 -14 -3 -6 -6z"/>
<path d="M0 90 l0 -90 135 0 135 0 0 40 c0 33 3 40 19 40 16 0 21 -8 24 -42
l4 -43 1 49 2 49 -50 -5 -50 -5 0 38 c0 37 -2 39 -30 39 -20 0 -30 -5 -30 -15
0 -11 -11 -15 -40 -15 -36 0 -40 3 -40 25 0 23 -4 25 -40 25 l-40 0 0 -90z"/>
<path d="M240 120 c0 -5 18 -10 40 -10 22 0 40 5 40 10 0 6 -18 10 -40 10 -22
0 -40 -4 -40 -10z"/>
</g>
</svg>
